<svg xmlns="http://www.w3.org/2000/svg" width="1200" height="800" viewBox="0 0 1200 800"><rect width="1200" height="800" fill="#112b37"/><circle cx="1070" cy="130" r="230" fill="#1d3c45"/><rect x="65" y="62" width="70" height="70" rx="22" fill="#cced99"/><text x="84" y="112" font-family="Arial" font-size="46" font-weight="700" fill="#112b37">R</text><text x="154" y="109" font-family="Arial" font-size="38" font-weight="700" fill="#fff">societyrelay</text><text x="65" y="230" font-family="Arial" font-size="20" font-weight="700" letter-spacing="3" fill="#cced99">THE GOOD NEIGHBOR AGENT</text><g font-family="Arial" font-weight="700" font-size="92"><text x="59" y="344" fill="#fff">No more</text><text x="59" y="452" fill="#cced99">“any update?”</text></g><text x="65" y="534" font-family="Arial" font-size="28" fill="#d1ded8">Shared problems. Human-verified closure.</text><circle cx="987" cy="239" r="63" fill="#cced99"/><rect x="777" y="312" width="159" height="307" rx="14" fill="#426666"/><rect x="944" y="293" width="152" height="326" rx="14" fill="#577a73"/><rect x="797" y="344" width="24" height="32" rx="5" fill="#cced99"/><rect x="797" y="401" width="24" height="32" rx="5" fill="#e5eade"/><rect x="797" y="458" width="24" height="32" rx="5" fill="#88aaa3"/><rect x="797" y="515" width="24" height="32" rx="5" fill="#cced99"/><rect x="840" y="344" width="24" height="32" rx="5" fill="#cced99"/><rect x="840" y="401" width="24" height="32" rx="5" fill="#e5eade"/><rect x="840" y="458" width="24" height="32" rx="5" fill="#88aaa3"/><rect x="840" y="515" width="24" height="32" rx="5" fill="#cced99"/><rect x="883" y="344" width="24" height="32" rx="5" fill="#cced99"/><rect x="883" y="401" width="24" height="32" rx="5" fill="#e5eade"/><rect x="883" y="458" width="24" height="32" rx="5" fill="#88aaa3"/><rect x="883" y="515" width="24" height="32" rx="5" fill="#cced99"/><rect x="963" y="344" width="24" height="32" rx="5" fill="#cced99"/><rect x="963" y="401" width="24" height="32" rx="5" fill="#e5eade"/><rect x="963" y="458" width="24" height="32" rx="5" fill="#88aaa3"/><rect x="963" y="515" width="24" height="32" rx="5" fill="#cced99"/><rect x="1006" y="344" width="24" height="32" rx="5" fill="#cced99"/><rect x="1006" y="401" width="24" height="32" rx="5" fill="#e5eade"/><rect x="1006" y="458" width="24" height="32" rx="5" fill="#88aaa3"/><rect x="1006" y="515" width="24" height="32" rx="5" fill="#cced99"/><rect x="1049" y="344" width="24" height="32" rx="5" fill="#cced99"/><rect x="1049" y="401" width="24" height="32" rx="5" fill="#e5eade"/><rect x="1049" y="458" width="24" height="32" rx="5" fill="#88aaa3"/><rect x="1049" y="515" width="24" height="32" rx="5" fill="#cced99"/><path d="M744 619H1130" stroke="#cced99" stroke-width="5"/><rect x="65" y="648" width="1070" height="2" fill="#36515a"/><text x="65" y="708" font-family="Arial" font-size="22" fill="#d1ded8">UNDERSTAND → COORDINATE → FOLLOW THROUGH</text><text x="65" y="748" font-family="Arial" font-size="17" letter-spacing="2" fill="#91b1ab">BUILT WITH STRANDS AGENTS · AGENTS FOR HUMANS 2026</text></svg>